<?xml version="1.0" standalone="no"?>
<!DOCTYPE svg PUBLIC "-//W3C//DTD SVG 20010904//EN"
 "http://www.w3.org/TR/2001/REC-SVG-20010904/DTD/svg10.dtd">
<svg version="1.0" xmlns="http://www.w3.org/2000/svg"
 width="623.000000pt" height="146.000000pt" viewBox="0 0 623.000000 146.000000"
 preserveAspectRatio="xMidYMid meet">

<g transform="translate(0.000000,146.000000) scale(0.100000,-0.100000)"
fill="#000000" stroke="none">
<path d="M114 1388 c-12 -5 -27 -21 -33 -34 -16 -35 -16 -1223 0 -1257 6 -14
22 -30 36 -36 34 -16 1262 -16 1296 0 14 6 30 22 36 36 8 17 11 207 11 628 0
421 -3 611 -11 628 -6 14 -22 30 -36 36 -32 15 -1268 14 -1299 -1z m1194 -286
l2 -173 -22 7 c-13 4 -138 62 -278 129 -287 137 -318 150 -327 142 -13 -13 41
-72 329 -363 l298 -301 -2 -179 -3 -179 -545 0 -545 0 -3 173 -2 173 22 -7
c13 -4 138 -62 278 -129 287 -137 318 -150 327 -142 13 13 -41 72 -329 363
l-298 301 0 175 c0 96 3 178 7 181 3 4 250 6 547 5 l541 -3 3 -173z"/>
<path d="M1979 1041 c-54 -11 -125 -56 -149 -95 -32 -52 -37 -123 -12 -179 26
-59 79 -97 174 -126 107 -32 137 -48 148 -77 19 -48 -28 -94 -96 -94 -45 0
-88 26 -99 60 -6 17 -15 20 -76 20 l-69 0 0 -30 c0 -57 47 -117 120 -156 27
-14 57 -19 125 -19 78 0 96 3 134 25 24 14 58 42 75 63 25 31 31 49 34 100 6
115 -48 171 -216 225 -105 34 -122 47 -122 96 0 71 144 79 170 10 9 -22 14
-24 80 -24 66 0 70 1 70 23 -1 32 -33 98 -61 124 -50 45 -154 70 -230 54z"/>
<path d="M5420 1022 c0 -45 -29 -129 -62 -183 -29 -48 -30 -51 -12 -64 30 -23
41 -18 85 37 53 68 88 138 96 193 l6 45 -57 0 c-55 0 -56 -1 -56 -28z"/>
<path d="M2561 820 c-59 -12 -115 -51 -148 -102 -23 -34 -29 -55 -31 -118 -4
-85 8 -124 53 -178 56 -67 163 -96 264 -72 49 12 131 61 131 79 0 5 -23 23
-50 41 -50 32 -51 32 -71 14 -33 -30 -129 -27 -163 5 -51 48 -41 51 145 51
l172 0 -6 58 c-14 158 -142 253 -296 222z m115 -132 c23 -11 47 -52 37 -62 -4
-3 -48 -6 -100 -6 -104 0 -116 10 -67 55 38 35 78 39 130 13z"/>
<path d="M3185 816 c-31 -14 -64 -46 -83 -81 -10 -17 -11 -11 -12 33 l0 52
-65 0 -65 0 0 -235 0 -235 65 0 65 0 0 103 c0 115 18 193 51 223 16 14 36 19
80 19 35 -1 60 4 63 11 11 28 17 102 9 107 -22 14 -81 16 -108 3z"/>
<path d="M3882 820 c-19 -4 -49 -23 -68 -41 -28 -27 -34 -30 -40 -16 -12 33
-68 57 -132 57 -54 0 -65 -4 -97 -31 l-35 -31 0 31 0 31 -65 0 -65 0 0 -235 0
-235 64 0 65 0 3 151 c3 145 4 152 27 170 35 28 85 25 110 -7 19 -24 21 -40
21 -170 l0 -144 70 0 70 0 0 144 c0 130 2 146 21 170 13 17 30 26 49 26 77 0
90 -30 90 -205 l0 -135 65 0 65 0 0 172 c0 153 -2 176 -21 214 -33 69 -116
104 -197 84z"/>
<path d="M4367 816 c-61 -17 -115 -60 -145 -117 -20 -38 -23 -55 -20 -125 3
-68 7 -87 31 -123 97 -146 327 -142 415 8 23 40 27 57 27 126 0 87 -12 119
-61 169 -62 61 -160 86 -247 62z m144 -152 c10 -9 23 -31 28 -48 28 -106 -90
-180 -171 -107 -28 25 -33 36 -33 76 0 40 5 51 34 77 30 26 39 30 78 25 24 -2
53 -13 64 -23z"/>
<path d="M5007 816 c-22 -8 -50 -24 -63 -37 l-24 -22 0 31 0 32 -65 0 -65 0 0
-235 0 -235 64 0 65 0 3 151 c3 145 4 152 27 170 36 29 94 25 120 -7 19 -24
21 -40 21 -170 l0 -144 71 0 71 0 -4 178 c-2 148 -6 183 -22 214 -33 68 -124
101 -199 74z"/>
<path d="M5741 820 c-59 -12 -115 -51 -148 -102 -23 -34 -29 -55 -31 -118 -4
-85 8 -124 53 -178 56 -67 163 -96 264 -72 49 12 131 61 131 79 0 5 -23 23
-50 41 -50 32 -51 32 -71 14 -33 -30 -129 -27 -163 5 -51 48 -41 51 145 51
l172 0 -6 58 c-14 158 -142 253 -296 222z m115 -132 c23 -11 47 -52 37 -62 -4
-3 -48 -6 -100 -6 -104 0 -116 10 -67 55 38 35 78 39 130 13z"/>
</g>
</svg>
