<?xml version="1.0" standalone="no"?>
<!DOCTYPE svg PUBLIC "-//W3C//DTD SVG 20010904//EN"
 "http://www.w3.org/TR/2001/REC-SVG-20010904/DTD/svg10.dtd">
<svg version="1.0" xmlns="http://www.w3.org/2000/svg"
 width="139.000000pt" height="135.000000pt" viewBox="0 0 139.000000 135.000000"
 preserveAspectRatio="xMidYMid meet">

<g transform="translate(0.000000,135.000000) scale(0.100000,-0.100000)"
fill="#000000" stroke="none">
<path d="M25 1325 l-25 -24 0 -626 0 -626 25 -24 24 -25 646 0 646 0 24 25 25
24 0 626 0 626 -25 24 -24 25 -646 0 -646 0 -24 -25z m1213 -260 c1 -87 0
-165 -2 -172 -6 -15 -24 -7 -352 150 -227 109 -274 127 -274 108 0 -18 57 -80
347 -371 l283 -286 -2 -179 -3 -180 -545 0 -545 0 -3 160 c-1 87 0 165 2 172
6 15 24 7 352 -150 228 -109 274 -127 274 -108 0 19 -116 143 -374 401 l-256
255 0 176 c0 97 3 179 7 182 3 4 250 6 547 5 l541 -3 3 -160z"/>
</g>
</svg>
